<?xml version="1.0" encoding="UTF-8" standalone="no"?>
<!-- Created with Inkscape (http://www.inkscape.org/) -->

<svg
    version="1.1"
    id="svg2"
    xml:space="preserve"
    width="30"
    height="36"
    viewBox="0 0 30 36"
    sodipodi:docname="nh_logo_studierende.eps"
    xmlns:inkscape="http://www.inkscape.org/namespaces/inkscape"
    xmlns:sodipodi="http://sodipodi.sourceforge.net/DTD/sodipodi-0.dtd"
    xmlns="http://www.w3.org/2000/svg"
    xmlns:svg="http://www.w3.org/2000/svg"><defs
     id="defs6" />
    <sodipodi:namedview
        id="namedview4"
        pagecolor="#ffffff"
        bordercolor="#666666"
        borderopacity="1.0"
        inkscape:pageshadow="2"
        inkscape:pageopacity="0.0"
        inkscape:pagecheckerboard="0"/>
    <g
        id="g8"
        inkscape:groupmode="layer"
        inkscape:label="ink_ext_XXXXXX"
        transform="matrix(1.3333333,0,0,-1.3333333,0,36)"><g
       id="g10"
       transform="scale(0.1)">

    <path
        d="m 115.074,264.637 c 22.649,-14.379 54.875,-12.699 79.024,-11.442 h 0.011 l 6.067,0.305 1.887,0.094 0.804,-1.719 15.039,-32.137 0.629,-1.34 -0.726,-1.261 c -11.465,-20.051 -15,-44.567 -14.414,-68.074 0.91,-36.25 11.578,-69.9224 18.238,-81.4732 l 1.469,-2.5429 -2.598,-1.3672 L 114.875,8 113.555,7.30078 112.238,8 6.73047,63.8984 l -2.60156,1.3789 1.47265,2.543 c 6.68754,11.5391 17.42184,45.1877 18.41014,81.4257 0.6406,23.512 -2.8476,48.043 -14.26561,68.113 l -0.72265,1.266 0.62109,1.324 15.10937,32.114 0.8125,1.726 1.8906,-0.101 6.1407,-0.325 c 24.0703,-1.312 55.8046,-3.043 78.4533,11.274 l 1.519,0.953 z m 79.313,-17.09"
        style="fill:#c3c2c3;fill-opacity:1;fill-rule:nonzero;stroke:none"
        id="path12"/>

    <path
        d="m 115.074,264.637 c 22.649,-14.379 54.875,-12.699 79.024,-11.442 h 0.011 l 6.067,0.305 1.887,0.094 0.804,-1.719 15.039,-32.137 0.629,-1.34 -0.726,-1.261 c -11.465,-20.051 -15,-44.567 -14.414,-68.074 0.91,-36.25 11.578,-69.9224 18.238,-81.4732 l 1.469,-2.5429 -2.598,-1.3672 L 114.875,8 113.555,7.30078 112.238,8 6.73047,63.8984 l -2.60156,1.3789 1.47265,2.543 c 6.68754,11.5391 17.42184,45.1877 18.41014,81.4257 0.6406,23.512 -2.8476,48.043 -14.26561,68.113 l -0.72265,1.266 0.62109,1.324 15.10937,32.114 0.8125,1.726 1.8906,-0.101 6.1407,-0.325 c 24.0703,-1.312 55.8046,-3.043 78.4533,11.274 l 1.519,0.953 z m 79.313,-17.09 C 169.973,246.273 137.566,244.59 113.551,258.926 89.543,244.652 57.6367,246.391 33.3086,247.715 L 29.0547,247.941 15.375,218.863 C 26.7969,198.031 30.3086,173.027 29.6563,149.117 28.707,114.238 18.8516,81.4883 11.8789,67.5742 L 113.563,13.7031 215.359,67.3633 c -6.941,13.9258 -16.734,46.7027 -17.609,81.5707 -0.605,23.925 2.961,48.929 14.426,69.734 l -13.617,29.09 -4.172,-0.211"
        style="fill:#231f20;fill-opacity:1;fill-rule:nonzero;stroke:none"
        id="path12"/>

    <path
        d="m 84.5313,208.984 c -0.4961,-0.652 -0.9688,-1.429 -1.3907,-2.324 l -2.5468,-5.406 -2.5665,5.406 c -0.4062,0.856 -0.871,1.625 -1.3789,2.293 l 0.0079,0.008 c -1.418,1.867 -3.1836,2.926 -4.9766,3.316 -1.7969,0.391 -3.6484,0.137 -5.2461,-0.617 -0.5273,-0.254 -1.0273,-0.555 -1.4688,-0.887 v -0.011 c -0.3125,-0.239 -0.5976,-0.496 -0.8359,-0.766 -1.4844,-1.652 -2.3633,-4.199 -2.5195,-6.836 -0.1563,-2.601 0.4023,-5.207 1.7695,-7.012 l -0.0039,-0.003 c 0.2461,-0.325 0.5078,-0.614 0.7734,-0.852 l 16.4297,-14.727 16.4961,14.907 c 0.2539,0.23 0.5117,0.519 0.7617,0.847 1.375,1.817 1.9375,4.438 1.7813,7.051 -0.1602,2.637 -1.0391,5.188 -2.5274,6.836 l -0.0117,0.012 c -0.2304,0.261 -0.5039,0.511 -0.8047,0.738 h -0.0039 c -0.4453,0.332 -0.9218,0.629 -1.4062,0.856 -1.5977,0.753 -3.4649,0.996 -5.2695,0.585 -1.8125,-0.41 -3.6055,-1.503 -5.0508,-3.414 z m -3.9532,4.102 c 2.2227,2.637 4.961,4.191 7.7735,4.828 3.0664,0.695 6.2226,0.289 8.9257,-0.988 0.8633,-0.406 1.6719,-0.899 2.4063,-1.453 l 0.0078,-0.008"
        style="fill:#ffffff;fill-opacity:1;fill-rule:nonzero;stroke:none"
        id="path14"/>

    <path
        d="m 84.5313,208.984 c -0.4961,-0.652 -0.9688,-1.429 -1.3907,-2.324 l -2.5468,-5.406 -2.5665,5.406 c -0.4062,0.856 -0.871,1.625 -1.3789,2.293 l 0.0079,0.008 c -1.418,1.867 -3.1836,2.926 -4.9766,3.316 -1.7969,0.391 -3.6484,0.137 -5.2461,-0.617 -0.5273,-0.254 -1.0273,-0.555 -1.4688,-0.887 v -0.011 c -0.3125,-0.239 -0.5976,-0.496 -0.8359,-0.766 -1.4844,-1.652 -2.3633,-4.199 -2.5195,-6.836 -0.1563,-2.601 0.4023,-5.207 1.7695,-7.012 l -0.0039,-0.003 c 0.2461,-0.325 0.5078,-0.614 0.7734,-0.852 l 16.4297,-14.727 16.4961,14.907 c 0.2539,0.23 0.5117,0.519 0.7617,0.847 1.375,1.817 1.9375,4.438 1.7813,7.051 -0.1602,2.637 -1.0391,5.188 -2.5274,6.836 l -0.0117,0.012 c -0.2304,0.261 -0.5039,0.511 -0.8047,0.738 h -0.0039 c -0.4453,0.332 -0.9218,0.629 -1.4062,0.856 -1.5977,0.753 -3.4649,0.996 -5.2695,0.585 -1.8125,-0.41 -3.6055,-1.503 -5.0508,-3.414 z m -3.9532,4.102 c 2.2227,2.637 4.961,4.191 7.7735,4.828 3.0664,0.695 6.2226,0.289 8.9257,-0.988 0.8633,-0.406 1.6719,-0.899 2.4063,-1.453 l 0.0078,-0.008 c 0.5546,-0.426 1.0936,-0.922 1.5936,-1.481 2.367,-2.625 3.75,-6.445 3.977,-10.277 0.234,-3.871 -0.688,-7.867 -2.907,-10.801 -0.421,-0.554 -0.925,-1.105 -1.492,-1.617 l -18.3825,-16.609 -1.8867,-1.707 -1.8907,1.695 -18.3164,16.422 c -0.5703,0.504 -1.0742,1.062 -1.5156,1.637 l -0.0117,0.007 c -2.2149,2.922 -3.1289,6.903 -2.8946,10.762 0.2266,3.828 1.6055,7.641 3.9571,10.266 l 0.0117,0.011 c 0.5156,0.575 1.0625,1.086 1.6211,1.508 l 0.0039,-0.008 c 0.7773,0.594 1.6094,1.098 2.4609,1.5 2.6993,1.274 5.8243,1.704 8.8555,1.043 2.7813,-0.605 5.4883,-2.121 7.7031,-4.73"
        style="fill:#231f20;fill-opacity:1;fill-rule:nonzero;stroke:none"
        id="path14"/>

     <path
         d="m 150.539,208.988 c -0.5,-0.656 -0.973,-1.437 -1.391,-2.328 l -2.55,-5.406 -2.567,5.406 c -0.402,0.856 -0.871,1.625 -1.379,2.293 l 0.008,0.008 c -1.418,1.867 -3.183,2.926 -4.976,3.316 -1.793,0.391 -3.649,0.137 -5.243,-0.617 -0.531,-0.254 -1.031,-0.555 -1.468,-0.887 v -0.011 c -0.317,-0.239 -0.602,-0.5 -0.84,-0.766 -1.485,-1.652 -2.363,-4.203 -2.52,-6.836 -0.156,-2.601 0.403,-5.207 1.77,-7.012 l -0.004,-0.003 c 0.23,-0.297 0.496,-0.59 0.789,-0.852 l -0.008,-0.004 16.426,-14.723 16.492,14.907 c 0.254,0.23 0.512,0.515 0.762,0.851 1.379,1.817 1.937,4.434 1.781,7.047 -0.156,2.637 -1.035,5.184 -2.519,6.832 l -0.004,-0.008 c -0.274,0.301 -0.559,0.567 -0.828,0.774 h -0.008 c -0.43,0.324 -0.899,0.609 -1.399,0.844 -1.593,0.753 -3.461,0.996 -5.265,0.585 -1.821,-0.41 -3.618,-1.507 -5.059,-3.41 z m -3.953,4.094 c 2.227,2.641 4.957,4.199 7.769,4.832 3.067,0.695 6.223,0.289 8.926,-0.988 0.848,-0.399 1.66,-0.891 2.41,-1.461 v -0.004 c 0.59,-0.449 1.122,-0.941 1.59,-1.453 v -0.012"
         style="fill:#ffffff;fill-opacity:1;fill-rule:nonzero;stroke:none"
         id="path16"/>

    <path
        d="m 150.539,208.988 c -0.5,-0.656 -0.973,-1.437 -1.391,-2.328 l -2.55,-5.406 -2.567,5.406 c -0.402,0.856 -0.871,1.625 -1.379,2.293 l 0.008,0.008 c -1.418,1.867 -3.183,2.926 -4.976,3.316 -1.793,0.391 -3.649,0.137 -5.243,-0.617 -0.531,-0.254 -1.031,-0.555 -1.468,-0.887 v -0.011 c -0.317,-0.239 -0.602,-0.5 -0.84,-0.766 -1.485,-1.652 -2.363,-4.203 -2.52,-6.836 -0.156,-2.601 0.403,-5.207 1.77,-7.012 l -0.004,-0.003 c 0.23,-0.297 0.496,-0.59 0.789,-0.852 l -0.008,-0.004 16.426,-14.723 16.492,14.907 c 0.254,0.23 0.512,0.515 0.762,0.851 1.379,1.817 1.937,4.434 1.781,7.047 -0.156,2.637 -1.035,5.184 -2.519,6.832 l -0.004,-0.008 c -0.274,0.301 -0.559,0.567 -0.828,0.774 h -0.008 c -0.43,0.324 -0.899,0.609 -1.399,0.844 -1.593,0.753 -3.461,0.996 -5.265,0.585 -1.821,-0.41 -3.618,-1.507 -5.059,-3.41 z m -3.953,4.094 c 2.227,2.641 4.957,4.199 7.769,4.832 3.067,0.695 6.223,0.289 8.926,-0.988 0.848,-0.399 1.66,-0.891 2.41,-1.461 v -0.004 c 0.59,-0.449 1.122,-0.941 1.59,-1.453 v -0.012 c 2.371,-2.625 3.758,-6.449 3.989,-10.289 0.23,-3.871 -0.684,-7.863 -2.911,-10.797 -0.421,-0.562 -0.921,-1.109 -1.492,-1.621 l -18.383,-16.609 -1.886,-1.707 -1.891,1.695 -18.316,16.422 h -0.012 c -0.547,0.488 -1.051,1.043 -1.504,1.637 l -0.012,0.007 c -2.215,2.922 -3.129,6.903 -2.894,10.762 0.226,3.828 1.605,7.641 3.957,10.262 0.519,0.582 1.066,1.097 1.633,1.523 l 0.004,-0.008 c 0.777,0.594 1.613,1.098 2.46,1.5 2.7,1.274 5.825,1.704 8.856,1.043 2.785,-0.605 5.492,-2.121 7.707,-4.734"
        style="fill:#231f20;fill-opacity:1;fill-rule:nonzero;stroke:none"
        id="path16"/>

    <path
        d="m 117.539,74.1758 0.008,-0.0039 c -0.516,-0.6836 -0.992,-1.461 -1.402,-2.3281 l -2.555,-5.4219 -2.559,5.4219 c -0.418,0.8867 -0.883,1.6562 -1.375,2.3046 -1.418,1.8633 -3.179,2.9258 -4.976,3.3125 -1.793,0.3868 -3.641,0.1368 -5.2386,-0.6171 -0.5312,-0.254 -1.0273,-0.5547 -1.4726,-0.8868 V 75.9453 C 97.6719,75.7188 97.3867,75.4531 97.125,75.1602 l -0.0039,0.0078 c -1.4766,-1.6524 -2.3516,-4.1992 -2.5117,-6.8282 -0.1524,-2.6015 0.4023,-5.2031 1.7695,-7.0039 L 96.375,61.332 c 0.2305,-0.3007 0.4961,-0.5937 0.7891,-0.8515 l -0.0078,-0.0078 16.4257,-14.7188 16.492,14.8984 -0.008,0.004 c 0.301,0.2734 0.571,0.5664 0.786,0.8476 l -0.008,0.0078 c 1.375,1.8164 1.933,4.4336 1.777,7.0469 -0.16,2.6367 -1.039,5.1836 -2.527,6.832 -0.25,0.2774 -0.531,0.5391 -0.817,0.7578 l -0.007,-0.0078 c -0.446,0.336 -0.922,0.6289 -1.403,0.8555 -1.597,0.7539 -3.465,0.9961 -5.269,0.5859 -1.821,-0.414 -3.618,-1.5078 -5.059,-3.4062 z m -3.953,4.0859 c 2.227,2.6406 4.957,4.1992 7.769,4.836 3.067,0.6953 6.223,0.289 8.926,-0.9883 0.856,-0.4063 1.664,-0.8946 2.403,-1.4492 v -0.0118 "
        style="fill:#ffffff;fill-opacity:1;fill-rule:nonzero;stroke:none"
        id="path18"/>

    <path
        d="m 117.539,74.1758 0.008,-0.0039 c -0.516,-0.6836 -0.992,-1.461 -1.402,-2.3281 l -2.555,-5.4219 -2.559,5.4219 c -0.418,0.8867 -0.883,1.6562 -1.375,2.3046 -1.418,1.8633 -3.179,2.9258 -4.976,3.3125 -1.793,0.3868 -3.641,0.1368 -5.2386,-0.6171 -0.5312,-0.254 -1.0273,-0.5547 -1.4726,-0.8868 V 75.9453 C 97.6719,75.7188 97.3867,75.4531 97.125,75.1602 l -0.0039,0.0078 c -1.4766,-1.6524 -2.3516,-4.1992 -2.5117,-6.8282 -0.1524,-2.6015 0.4023,-5.2031 1.7695,-7.0039 L 96.375,61.332 c 0.2305,-0.3007 0.4961,-0.5937 0.7891,-0.8515 l -0.0078,-0.0078 16.4257,-14.7188 16.492,14.8984 -0.008,0.004 c 0.301,0.2734 0.571,0.5664 0.786,0.8476 l -0.008,0.0078 c 1.375,1.8164 1.933,4.4336 1.777,7.0469 -0.16,2.6367 -1.039,5.1836 -2.527,6.832 -0.25,0.2774 -0.531,0.5391 -0.817,0.7578 l -0.007,-0.0078 c -0.446,0.336 -0.922,0.6289 -1.403,0.8555 -1.597,0.7539 -3.465,0.9961 -5.269,0.5859 -1.821,-0.414 -3.618,-1.5078 -5.059,-3.4062 z m -3.953,4.0859 c 2.227,2.6406 4.957,4.1992 7.769,4.836 3.067,0.6953 6.223,0.289 8.926,-0.9883 0.856,-0.4063 1.664,-0.8946 2.403,-1.4492 v -0.0118 c 0.57,-0.4336 1.105,-0.9296 1.593,-1.4726 2.375,-2.625 3.762,-6.4453 3.989,-10.2852 0.234,-3.8672 -0.684,-7.8593 -2.903,-10.7929 h -0.011 c -0.457,-0.6016 -0.954,-1.1524 -1.477,-1.625 h -0.008 l -18.383,-16.6055 -1.886,-1.707 -1.891,1.6953 -18.3203,16.4179 H 93.375 c -0.5469,0.4883 -1.0508,1.043 -1.5039,1.6407 l -0.0117,0.0078 c -2.211,2.9179 -3.125,6.8984 -2.8946,10.75 0.2305,3.8242 1.6055,7.6367 3.9532,10.2656 v 0.0117 c 0.5039,0.5547 1.0508,1.0703 1.6406,1.5156 l 0.0039,-0.0117 c 0.7773,0.5938 1.6094,1.0977 2.4648,1.5039 2.6954,1.2735 5.8207,1.7032 8.8477,1.043 2.789,-0.6055 5.496,-2.125 7.711,-4.7383"
        style="fill:#231f20;fill-opacity:1;fill-rule:nonzero;stroke:none"
        id="path18"/>

      <path
          d="m 45.5859,133.871 22,22.609 1.9961,2.051 2.0235,-2.015 20,-19.918 20.0075,20.004 1.981,1.976 2.004,-1.965 20.375,-20.019 19.632,19.957 2,2.027 2.02,-2.015 22,-22.008 0.828,-0.832 v -1.16 -32.6411 -6.9805 l -4.859,5.0117 -19.973,20.5779 -19.976,-20.5779 -2.047,-2.1133 -2.032,2.1329 -19.777,20.7613 -20.1484,-20.7809 -2.0195,-2.0898 -2.0313,2.0898 -19.9765,20.5239 -19.9727,-20.5239 -4.8633,-5 v 6.9688 31.9761 1.141 z m 24.0586,16.621 -19.1953,-19.73"
          style="fill:#ffffff;fill-opacity:1;fill-rule:nonzero;stroke:none"
          id="path20"/>


    <path
        d="m 45.5859,133.871 22,22.609 1.9961,2.051 2.0235,-2.015 20,-19.918 20.0075,20.004 1.981,1.976 2.004,-1.965 20.375,-20.019 19.632,19.957 2,2.027 2.02,-2.015 22,-22.008 0.828,-0.832 v -1.16 -32.6411 -6.9805 l -4.859,5.0117 -19.973,20.5779 -19.976,-20.5779 -2.047,-2.1133 -2.032,2.1329 -19.777,20.7613 -20.1484,-20.7809 -2.0195,-2.0898 -2.0313,2.0898 -19.9765,20.5239 -19.9727,-20.5239 -4.8633,-5 v 6.9688 31.9761 1.141 z m 24.0586,16.621 -19.1953,-19.73 v -23.875 l 17.1367,17.613 2.0274,2.078 2.0273,-2.078 19.9727,-20.52 20.1717,20.805 2.043,2.11 2.031,-2.129 19.778,-20.766 19.957,20.563 2.027,2.085 2.024,-2.085 17.14,-17.661 v 24.5 l -19.148,19.153 -19.617,-19.938 -1.981,-2.015 -2.016,1.98 -20.382,20.031 -20.0238,-20.019 -1.9922,-1.996 -2.0039,1.996 -19.9766,19.898"
        style="fill:#231f20;fill-opacity:1;fill-rule:nonzero;stroke:none"
        id="path20"/>

    </g></g></svg>
