<?xml version="1.0" encoding="UTF-8" standalone="no"?>
<!-- Created with Inkscape (http://www.inkscape.org/) -->

<svg
   version="1.1"
   id="svg2"
   xml:space="preserve"
   width="212"
   height="36"
   viewBox="0 0 212 36"
   sodipodi:docname="nh_logo_studierende.eps"
   xmlns:inkscape="http://www.inkscape.org/namespaces/inkscape"
   xmlns:sodipodi="http://sodipodi.sourceforge.net/DTD/sodipodi-0.dtd"
   xmlns="http://www.w3.org/2000/svg"
   xmlns:svg="http://www.w3.org/2000/svg"><defs
     id="defs6" /><sodipodi:namedview
     id="namedview4"
     pagecolor="#ffffff"
     bordercolor="#666666"
     borderopacity="1.0"
     inkscape:pageshadow="2"
     inkscape:pageopacity="0.0"
     inkscape:pagecheckerboard="0" /><g
     id="g8"
     inkscape:groupmode="layer"
     inkscape:label="ink_ext_XXXXXX"
     transform="matrix(1.3333333,0,0,-1.3333333,0,36)"><g
       id="g10"
       transform="scale(0.1)"><path
         d="m 115.074,264.637 c 22.649,-14.379 54.875,-12.699 79.024,-11.442 h 0.011 l 6.067,0.305 1.887,0.094 0.804,-1.719 15.039,-32.137 0.629,-1.34 -0.726,-1.261 c -11.465,-20.051 -15,-44.567 -14.414,-68.074 0.91,-36.25 11.578,-69.9224 18.238,-81.4732 l 1.469,-2.5429 -2.598,-1.3672 L 114.875,8 113.555,7.30078 112.238,8 6.73047,63.8984 l -2.60156,1.3789 1.47265,2.543 c 6.68754,11.5391 17.42184,45.1877 18.41014,81.4257 0.6406,23.512 -2.8476,48.043 -14.26561,68.113 l -0.72265,1.266 0.62109,1.324 15.10937,32.114 0.8125,1.726 1.8906,-0.101 6.1407,-0.325 c 24.0703,-1.312 55.8046,-3.043 78.4533,11.274 l 1.519,0.953 z m 79.313,-17.09 C 169.973,246.273 137.566,244.59 113.551,258.926 89.543,244.652 57.6367,246.391 33.3086,247.715 L 29.0547,247.941 15.375,218.863 C 26.7969,198.031 30.3086,173.027 29.6563,149.117 28.707,114.238 18.8516,81.4883 11.8789,67.5742 L 113.563,13.7031 215.359,67.3633 c -6.941,13.9258 -16.734,46.7027 -17.609,81.5707 -0.605,23.925 2.961,48.929 14.426,69.734 l -13.617,29.09 -4.172,-0.211"
         style="fill:#8f9399;fill-opacity:1;fill-rule:nonzero;stroke:none"
         id="path12" /><path
         d="m 84.5313,208.984 c -0.4961,-0.652 -0.9688,-1.429 -1.3907,-2.324 l -2.5468,-5.406 -2.5665,5.406 c -0.4062,0.856 -0.871,1.625 -1.3789,2.293 l 0.0079,0.008 c -1.418,1.867 -3.1836,2.926 -4.9766,3.316 -1.7969,0.391 -3.6484,0.137 -5.2461,-0.617 -0.5273,-0.254 -1.0273,-0.555 -1.4688,-0.887 v -0.011 c -0.3125,-0.239 -0.5976,-0.496 -0.8359,-0.766 -1.4844,-1.652 -2.3633,-4.199 -2.5195,-6.836 -0.1563,-2.601 0.4023,-5.207 1.7695,-7.012 l -0.0039,-0.003 c 0.2461,-0.325 0.5078,-0.614 0.7734,-0.852 l 16.4297,-14.727 16.4961,14.907 c 0.2539,0.23 0.5117,0.519 0.7617,0.847 1.375,1.817 1.9375,4.438 1.7813,7.051 -0.1602,2.637 -1.0391,5.188 -2.5274,6.836 l -0.0117,0.012 c -0.2304,0.261 -0.5039,0.511 -0.8047,0.738 h -0.0039 c -0.4453,0.332 -0.9218,0.629 -1.4062,0.856 -1.5977,0.753 -3.4649,0.996 -5.2695,0.585 -1.8125,-0.41 -3.6055,-1.503 -5.0508,-3.414 z m -3.9532,4.102 c 2.2227,2.637 4.961,4.191 7.7735,4.828 3.0664,0.695 6.2226,0.289 8.9257,-0.988 0.8633,-0.406 1.6719,-0.899 2.4063,-1.453 l 0.0078,-0.008 c 0.5546,-0.426 1.0936,-0.922 1.5936,-1.481 2.367,-2.625 3.75,-6.445 3.977,-10.277 0.234,-3.871 -0.688,-7.867 -2.907,-10.801 -0.421,-0.554 -0.925,-1.105 -1.492,-1.617 l -18.3825,-16.609 -1.8867,-1.707 -1.8907,1.695 -18.3164,16.422 c -0.5703,0.504 -1.0742,1.062 -1.5156,1.637 l -0.0117,0.007 c -2.2149,2.922 -3.1289,6.903 -2.8946,10.762 0.2266,3.828 1.6055,7.641 3.9571,10.266 l 0.0117,0.011 c 0.5156,0.575 1.0625,1.086 1.6211,1.508 l 0.0039,-0.008 c 0.7773,0.594 1.6094,1.098 2.4609,1.5 2.6993,1.274 5.8243,1.704 8.8555,1.043 2.7813,-0.605 5.4883,-2.121 7.7031,-4.73"
         style="fill:#8f9399;fill-opacity:1;fill-rule:nonzero;stroke:none"
         id="path14" /><path
         d="m 150.539,208.988 c -0.5,-0.656 -0.973,-1.437 -1.391,-2.328 l -2.55,-5.406 -2.567,5.406 c -0.402,0.856 -0.871,1.625 -1.379,2.293 l 0.008,0.008 c -1.418,1.867 -3.183,2.926 -4.976,3.316 -1.793,0.391 -3.649,0.137 -5.243,-0.617 -0.531,-0.254 -1.031,-0.555 -1.468,-0.887 v -0.011 c -0.317,-0.239 -0.602,-0.5 -0.84,-0.766 -1.485,-1.652 -2.363,-4.203 -2.52,-6.836 -0.156,-2.601 0.403,-5.207 1.77,-7.012 l -0.004,-0.003 c 0.23,-0.297 0.496,-0.59 0.789,-0.852 l -0.008,-0.004 16.426,-14.723 16.492,14.907 c 0.254,0.23 0.512,0.515 0.762,0.851 1.379,1.817 1.937,4.434 1.781,7.047 -0.156,2.637 -1.035,5.184 -2.519,6.832 l -0.004,-0.008 c -0.274,0.301 -0.559,0.567 -0.828,0.774 h -0.008 c -0.43,0.324 -0.899,0.609 -1.399,0.844 -1.593,0.753 -3.461,0.996 -5.265,0.585 -1.821,-0.41 -3.618,-1.507 -5.059,-3.41 z m -3.953,4.094 c 2.227,2.641 4.957,4.199 7.769,4.832 3.067,0.695 6.223,0.289 8.926,-0.988 0.848,-0.399 1.66,-0.891 2.41,-1.461 v -0.004 c 0.59,-0.449 1.122,-0.941 1.59,-1.453 v -0.012 c 2.371,-2.625 3.758,-6.449 3.989,-10.289 0.23,-3.871 -0.684,-7.863 -2.911,-10.797 -0.421,-0.562 -0.921,-1.109 -1.492,-1.621 l -18.383,-16.609 -1.886,-1.707 -1.891,1.695 -18.316,16.422 h -0.012 c -0.547,0.488 -1.051,1.043 -1.504,1.637 l -0.012,0.007 c -2.215,2.922 -3.129,6.903 -2.894,10.762 0.226,3.828 1.605,7.641 3.957,10.262 0.519,0.582 1.066,1.097 1.633,1.523 l 0.004,-0.008 c 0.777,0.594 1.613,1.098 2.46,1.5 2.7,1.274 5.825,1.704 8.856,1.043 2.785,-0.605 5.492,-2.121 7.707,-4.734"
         style="fill:#8f9399;fill-opacity:1;fill-rule:nonzero;stroke:none"
         id="path16" /><path
         d="m 117.539,74.1758 0.008,-0.0039 c -0.516,-0.6836 -0.992,-1.461 -1.402,-2.3281 l -2.555,-5.4219 -2.559,5.4219 c -0.418,0.8867 -0.883,1.6562 -1.375,2.3046 -1.418,1.8633 -3.179,2.9258 -4.976,3.3125 -1.793,0.3868 -3.641,0.1368 -5.2386,-0.6171 -0.5312,-0.254 -1.0273,-0.5547 -1.4726,-0.8868 V 75.9453 C 97.6719,75.7188 97.3867,75.4531 97.125,75.1602 l -0.0039,0.0078 c -1.4766,-1.6524 -2.3516,-4.1992 -2.5117,-6.8282 -0.1524,-2.6015 0.4023,-5.2031 1.7695,-7.0039 L 96.375,61.332 c 0.2305,-0.3007 0.4961,-0.5937 0.7891,-0.8515 l -0.0078,-0.0078 16.4257,-14.7188 16.492,14.8984 -0.008,0.004 c 0.301,0.2734 0.571,0.5664 0.786,0.8476 l -0.008,0.0078 c 1.375,1.8164 1.933,4.4336 1.777,7.0469 -0.16,2.6367 -1.039,5.1836 -2.527,6.832 -0.25,0.2774 -0.531,0.5391 -0.817,0.7578 l -0.007,-0.0078 c -0.446,0.336 -0.922,0.6289 -1.403,0.8555 -1.597,0.7539 -3.465,0.9961 -5.269,0.5859 -1.821,-0.414 -3.618,-1.5078 -5.059,-3.4062 z m -3.953,4.0859 c 2.227,2.6406 4.957,4.1992 7.769,4.836 3.067,0.6953 6.223,0.289 8.926,-0.9883 0.856,-0.4063 1.664,-0.8946 2.403,-1.4492 v -0.0118 c 0.57,-0.4336 1.105,-0.9296 1.593,-1.4726 2.375,-2.625 3.762,-6.4453 3.989,-10.2852 0.234,-3.8672 -0.684,-7.8593 -2.903,-10.7929 h -0.011 c -0.457,-0.6016 -0.954,-1.1524 -1.477,-1.625 h -0.008 l -18.383,-16.6055 -1.886,-1.707 -1.891,1.6953 -18.3203,16.4179 H 93.375 c -0.5469,0.4883 -1.0508,1.043 -1.5039,1.6407 l -0.0117,0.0078 c -2.211,2.9179 -3.125,6.8984 -2.8946,10.75 0.2305,3.8242 1.6055,7.6367 3.9532,10.2656 v 0.0117 c 0.5039,0.5547 1.0508,1.0703 1.6406,1.5156 l 0.0039,-0.0117 c 0.7773,0.5938 1.6094,1.0977 2.4648,1.5039 2.6954,1.2735 5.8207,1.7032 8.8477,1.043 2.789,-0.6055 5.496,-2.125 7.711,-4.7383"
         style="fill:#8f9399;fill-opacity:1;fill-rule:nonzero;stroke:none"
         id="path18" /><path
         d="m 45.5859,133.871 22,22.609 1.9961,2.051 2.0235,-2.015 20,-19.918 20.0075,20.004 1.981,1.976 2.004,-1.965 20.375,-20.019 19.632,19.957 2,2.027 2.02,-2.015 22,-22.008 0.828,-0.832 v -1.16 -32.6411 -6.9805 l -4.859,5.0117 -19.973,20.5779 -19.976,-20.5779 -2.047,-2.1133 -2.032,2.1329 -19.777,20.7613 -20.1484,-20.7809 -2.0195,-2.0898 -2.0313,2.0898 -19.9765,20.5239 -19.9727,-20.5239 -4.8633,-5 v 6.9688 31.9761 1.141 z m 24.0586,16.621 -19.1953,-19.73 v -23.875 l 17.1367,17.613 2.0274,2.078 2.0273,-2.078 19.9727,-20.52 20.1717,20.805 2.043,2.11 2.031,-2.129 19.778,-20.766 19.957,20.563 2.027,2.085 2.024,-2.085 17.14,-17.661 v 24.5 l -19.148,19.153 -19.617,-19.938 -1.981,-2.015 -2.016,1.98 -20.382,20.031 -20.0238,-20.019 -1.9922,-1.996 -2.0039,1.996 -19.9766,19.898"
         style="fill:#8f9399;fill-opacity:1;fill-rule:nonzero;stroke:none"
         id="path20" /><path
         d="m 357.281,230.066 c -1.14,1.145 -2.519,2.25 -4.14,3.332 -1.621,1.079 -2.942,1.829 -3.957,2.25 -1.024,0.422 -2.223,0.84 -3.602,1.258 -2.703,0.84 -5.941,1.141 -9.719,0.903 -6.543,-0.356 -11.597,-2.071 -15.168,-5.129 -3.57,-3.059 -5.351,-6.965 -5.351,-11.703 0,-4.735 1.859,-8.594 5.578,-11.567 3.719,-2.961 9.465,-5.172 17.234,-6.613 7.77,-1.434 12.824,-4.168 15.164,-8.188 2.34,-4.023 1.321,-8.492 -3.058,-13.41 -1.321,-1.496 -3.196,-2.582 -5.625,-3.242 -2.43,-0.656 -4.907,-0.871 -7.426,-0.629 -7.742,-0.117 -14.731,2.91 -20.969,9.09 l -3.332,-3.512 c 0.36,-0.234 1.379,-1.004 3.063,-2.297 1.675,-1.285 3.043,-2.23 4.093,-2.832 1.051,-0.597 2.536,-1.351 4.454,-2.25 3.66,-1.8 8.371,-2.699 14.132,-2.699 2.879,0 5.61,0.465 8.188,1.395 2.582,0.933 4.754,2.191 6.527,3.781 1.77,1.59 3.207,3.418 4.321,5.488 1.105,2.071 1.664,4.278 1.664,6.613 0,2.348 -0.512,4.715 -1.532,7.11 -1.679,3.187 -4.379,5.551 -8.101,7.113 -3.84,1.68 -8.129,2.942 -12.867,3.777 l -3.782,0.813 c -2.941,0.664 -4.949,1.273 -6.031,1.844 -1.078,0.574 -2.098,1.168 -3.059,1.801 -0.96,0.628 -1.679,1.304 -2.16,2.023 -1.019,1.801 -1.527,3.902 -1.527,6.301 0.059,4.328 1.633,7.547 4.723,9.676 3.089,2.132 6.632,3.136 10.621,3.015 3.988,-0.117 7.676,-0.871 11.066,-2.25 3.391,-1.379 5.957,-3.031 7.699,-4.953 l 2.879,3.691"
         style="fill:#8f9399;fill-opacity:1;fill-rule:evenodd;stroke:none"
         id="path22" /><path
         d="m 401.051,173.906 h -4.41 V 232.68 H 374.41 v 4.414 h 48.602 v -4.414 h -21.961 v -58.774"
         style="fill:#8f9399;fill-opacity:1;fill-rule:evenodd;stroke:none"
         id="path24" /><path
         d="m 490.27,198.66 v 38.434 h -4.411 v -37.891 c 0.121,-1.562 0.016,-3.32 -0.316,-5.273 -0.328,-1.942 -0.75,-3.555 -1.258,-4.813 -0.512,-1.258 -1.32,-2.668 -2.43,-4.23 -1.113,-1.559 -2.414,-2.852 -3.914,-3.871 -3.722,-2.457 -8.554,-3.688 -14.492,-3.688 -7.258,0.008 -12.629,2.52 -16.109,7.559 -2.762,3.968 -4.141,8.492 -4.141,13.59 v 38.617 h -4.41 v -38.879 c 0.301,-4.086 0.945,-7.375 1.934,-9.863 0.992,-2.485 2.117,-4.653 3.379,-6.481 1.257,-1.828 2.683,-3.375 4.273,-4.633 1.59,-1.258 3.66,-2.312 6.207,-3.148 2.551,-0.84 5.535,-1.262 8.957,-1.262 3.418,0 6.645,0.434 9.676,1.305 3.031,0.871 5.461,1.949 7.289,3.238 1.828,1.289 3.434,2.899 4.816,4.817 1.379,1.917 2.368,3.66 2.969,5.222 0.598,1.559 1.051,3.297 1.352,5.219 0.418,2.219 0.629,4.226 0.629,6.031"
         style="fill:#8f9399;fill-opacity:1;fill-rule:evenodd;stroke:none"
         id="path26" /><path
         d="m 511.535,232.68 v -54.356 h 17.461 c 4.141,0 7.949,0.742 11.43,2.246 3.242,1.375 6.121,3.356 8.64,5.938 5.34,5.519 8.012,11.637 8.012,18.359 0,4.149 -0.75,7.817 -2.25,11.024 -1.5,3.214 -3.226,5.851 -5.176,7.922 -1.953,2.07 -4.214,3.792 -6.797,5.175 -4.621,2.461 -9.66,3.692 -15.117,3.692 z m 50.223,-26.184 c 0,-4.391 -0.692,-8.41 -2.07,-12.07 -1.383,-3.656 -3.196,-6.735 -5.446,-9.223 -2.25,-2.484 -4.847,-4.605 -7.785,-6.348 -5.461,-3.292 -11.312,-4.949 -17.551,-4.949 h -21.961 v 63.188 h 18.993 c 10.437,0 19.019,-2.93 25.742,-8.781 6.715,-5.852 10.078,-13.125 10.078,-21.817"
         style="fill:#8f9399;fill-opacity:1;fill-rule:evenodd;stroke:none"
         id="path28" /><path
         d="m 582.488,173.906 h -4.41 v 63.188 h 4.41 v -63.188"
         style="fill:#8f9399;fill-opacity:1;fill-rule:evenodd;stroke:none"
         id="path30" /><path
         d="m 603.848,178.324 h 40.136 v -4.418 h -44.546 l 0.175,63.188 h 44.371 v -4.508 h -40.136 v -24.75 h 36.175 v -4.41 h -36.175 v -25.102"
         style="fill:#8f9399;fill-opacity:1;fill-rule:evenodd;stroke:none"
         id="path32" /><path
         d="m 664.895,204.238 v 28.442 h 22.41 c 4.738,0 8.773,-1.16 12.105,-3.469 3.328,-2.305 4.992,-5.441 4.992,-9.402 0,-5.036 -1.636,-8.883 -4.902,-11.52 -3.273,-2.641 -8.477,-3.992 -15.617,-4.051 z m 28.078,-2.062 c 2.101,0.476 4.261,1.179 6.48,2.105 2.219,0.934 3.719,1.785 4.5,2.567 3.36,3.179 5.043,7.5 5.043,12.961 0,2.64 -0.558,5.007 -1.668,7.109 -1.109,2.102 -2.504,3.766 -4.183,4.996 -1.68,1.231 -3.602,2.231 -5.762,3.016 -3.781,1.445 -7.531,2.16 -11.25,2.16 l -25.828,0.004 v -63.188 h 4.59 v 25.922 h 14.668 c 4.921,0 8.207,-0.164 9.855,-0.496 1.652,-0.324 3.078,-0.644 4.277,-0.945 1.2,-0.297 2.145,-0.66 2.832,-1.078 0.692,-0.418 1.473,-0.946 2.344,-1.579 0.867,-0.628 1.543,-1.335 2.024,-2.113 1.078,-1.918 1.621,-3.902 1.621,-5.937 0,-4.379 0.386,-8.282 1.168,-11.703 l 0.359,-2.071 h 4.863 c -1.082,5.102 -1.625,9.242 -1.625,12.422 0,3.18 -0.418,5.684 -1.258,7.516 -0.839,1.832 -1.98,3.285 -3.421,4.363 -2.758,2.168 -5.969,3.481 -9.629,3.969"
         style="fill:#8f9399;fill-opacity:1;fill-rule:evenodd;stroke:none"
         id="path34" /><path
         d="m 729.543,178.324 h 40.141 v -4.418 h -44.551 l 0.18,63.188 h 44.371 v -4.508 h -40.141 v -24.75 h 36.18 v -4.41 h -36.18 v -25.102"
         style="fill:#8f9399;fill-opacity:1;fill-rule:evenodd;stroke:none"
         id="path36" /><path
         d="M 790.41,173.906 H 786 v 63.188 h 4.41 l 43.379,-54.274 v 54.274 h 4.41 v -63.188 h -2.969 l -44.82,56.434 v -56.434"
         style="fill:#8f9399;fill-opacity:1;fill-rule:evenodd;stroke:none"
         id="path38" /><path
         d="m 859.738,232.68 v -54.356 h 17.461 c 4.141,0 7.949,0.742 11.43,2.246 3.242,1.375 6.121,3.356 8.641,5.938 5.339,5.519 8.011,11.637 8.011,18.359 0,4.149 -0.754,7.817 -2.25,11.024 -1.5,3.214 -3.226,5.851 -5.179,7.922 -1.95,2.07 -4.215,3.792 -6.793,5.175 -4.621,2.461 -9.661,3.692 -15.121,3.692 z m 50.223,-26.184 c 0,-4.391 -0.691,-8.41 -2.074,-12.07 -1.379,-3.656 -3.196,-6.735 -5.446,-9.223 -2.246,-2.484 -4.843,-4.605 -7.781,-6.348 -5.461,-3.292 -11.312,-4.949 -17.551,-4.949 h -21.961 v 63.188 h 18.993 c 10.437,0 19.019,-2.93 25.738,-8.781 6.719,-5.852 10.082,-13.125 10.082,-21.817"
         style="fill:#8f9399;fill-opacity:1;fill-rule:evenodd;stroke:none"
         id="path40" /><path
         d="m 930.691,178.324 h 40.137 v -4.418 h -44.551 l 0.18,63.188 h 44.371 v -4.508 h -40.137 v -24.75 h 36.176 v -4.41 h -36.176 v -25.102"
         style="fill:#8f9399;fill-opacity:1;fill-rule:evenodd;stroke:none"
         id="path42" /><path
         d="m 991.559,173.906 h -4.411 v 63.188 h 4.411 l 43.381,-54.274 v 54.274 h 4.41 v -63.188 h -2.97 l -44.821,56.434 v -56.434"
         style="fill:#8f9399;fill-opacity:1;fill-rule:evenodd;stroke:none"
         id="path44" /><path
         d="m 1101.39,237.094 h -3.16 l -17.82,-56.074 -20.52,56.074 h -4.85 l 22.5,-63.188 h 4.5 l 17.91,53.641 0.09,0.719 18.26,-54.36 h 4.5 l 21.79,63.188 h -4.86 l -19.27,-56.074 -19.07,56.074"
         style="fill:#8f9399;fill-opacity:1;fill-rule:evenodd;stroke:none"
         id="path46" /><path
         d="m 1191.14,177.059 c 7.68,0 14.07,2.726 19.18,8.191 5.04,5.402 7.56,12.059 7.56,19.977 v 0.187 c 0,3.899 -0.68,7.57 -2.03,11.02 -1.35,3.453 -3.21,6.449 -5.58,9 -2.37,2.546 -5.21,4.574 -8.5,6.074 -3.31,1.5 -6.91,2.25 -10.81,2.25 -7.67,0.004 -14.07,-2.731 -19.16,-8.188 -5.04,-5.394 -7.57,-12.062 -7.57,-19.984 v -0.172 c 0,-3.902 0.68,-7.582 2.03,-11.031 1.35,-3.449 3.21,-6.449 5.58,-9 2.37,-2.551 5.21,-4.578 8.5,-6.074 3.3,-1.5 6.91,-2.254 10.8,-2.25 z m 22.86,5.586 c -2.75,-3.004 -6.1,-5.395 -10.03,-7.161 -3.93,-1.765 -8.28,-2.656 -13.05,-2.656 -4.77,0 -9.09,0.883 -12.96,2.656 -3.87,1.77 -7.18,4.121 -9.94,7.063 -5.77,6.246 -8.64,13.801 -8.64,22.68 v 0.187 c 0,4.32 0.76,8.438 2.29,12.367 1.53,3.934 3.67,7.395 6.44,10.395 2.75,3.004 6.09,5.387 9.98,7.156 3.91,1.773 8.24,2.656 13.01,2.656 4.77,0 9.1,-0.886 13.01,-2.656 3.9,-1.766 7.23,-4.125 9.98,-7.066 5.77,-6.235 8.64,-13.797 8.64,-22.68 0.06,-0.055 0.06,-0.117 0,-0.176 0,-4.316 -0.76,-8.449 -2.29,-12.379 -1.53,-3.929 -3.67,-7.394 -6.44,-10.386"
         style="fill:#8f9399;fill-opacity:1;fill-rule:evenodd;stroke:none"
         id="path48" /><path
         d="m 1243.55,207.836 v 29.258 h -4.41 v -63.188 h 4.41 v 29.434 h 40.41 v -29.434 h 4.42 v 63.188 h -4.42 v -29.258 h -40.41"
         style="fill:#8f9399;fill-opacity:1;fill-rule:evenodd;stroke:none"
         id="path50" /><path
         d="m 1309.73,173.906 h -4.41 v 63.188 h 4.41 l 43.38,-54.274 v 54.274 h 4.41 v -63.188 h -2.97 l -44.82,56.434 v -56.434"
         style="fill:#8f9399;fill-opacity:1;fill-rule:evenodd;stroke:none"
         id="path52" /><path
         d="m 1378.88,207.836 v 29.258 h -4.41 v -63.188 h 4.41 v 29.434 h 40.41 v -29.434 h 4.41 v 63.188 h -4.41 v -29.258 h -40.41"
         style="fill:#8f9399;fill-opacity:1;fill-rule:evenodd;stroke:none"
         id="path54" /><path
         d="m 1445.06,178.324 h 40.14 v -4.418 h -44.55 l 0.18,63.188 h 44.37 v -4.508 h -40.14 v -24.75 h 36.18 v -4.41 h -36.18 v -25.102"
         style="fill:#8f9399;fill-opacity:1;fill-rule:evenodd;stroke:none"
         id="path56" /><path
         d="m 1505.93,173.906 h -4.41 v 63.188 h 4.41 v -63.188"
         style="fill:#8f9399;fill-opacity:1;fill-rule:evenodd;stroke:none"
         id="path58" /><path
         d="m 1582.01,173.906 h -4.41 v 55.442 l -24.39,-36.895 h -0.64 l -25.28,36.805 v -55.352 h -4.41 v 63.188 h 4.41 l 25.64,-37.266 25.3,37.266 h 3.78 v -63.188"
         style="fill:#8f9399;fill-opacity:1;fill-rule:evenodd;stroke:none"
         id="path60" /><path
         d="m 321.523,54.4453 h -5.882 v 84.2427 h 5.882 l 57.836,-72.3599 v 72.3599 h 5.879 V 54.4453 h -3.961 L 321.523,129.688 V 54.4453"
         style="fill:#8f9399;fill-opacity:1;fill-rule:evenodd;stroke:none"
         id="path62" /><path
         d="m 439.668,60.332 h 53.516 v -5.8867 h -59.399 l 0.242,84.2427 h 59.157 v -6 H 439.668 V 99.6914 h 48.238 V 93.8047 H 439.668 V 60.332"
         style="fill:#8f9399;fill-opacity:1;fill-rule:evenodd;stroke:none"
         id="path64" /><path
         d="m 601.012,138.688 h -4.199 l -23.758,-74.7622 -27.36,74.7622 h -6.48 l 30,-84.2427 h 6 l 23.879,71.5237 0.117,0.957 24.363,-72.4807 h 5.996 l 29.043,84.2427 h -6.48 l -25.68,-74.7622 -25.441,74.7622"
         style="fill:#8f9399;fill-opacity:1;fill-rule:evenodd;stroke:none"
         id="path66" /><path
         d="M 784.199,54.4453 H 778.32 V 128.371 L 745.801,79.1719 h -0.844 L 711.238,128.246 V 54.4453 h -5.879 v 84.2427 h 5.879 l 34.203,-49.6802 33.719,49.6802 h 5.039 V 54.4453"
         style="fill:#8f9399;fill-opacity:1;fill-rule:evenodd;stroke:none"
         id="path68" /><path
         d="m 831.066,54.4453 38.641,84.2427 h 6 l 40.078,-84.2427 h -6.961 L 898.023,78.207 H 848.586 L 837.547,54.4453 Z m 64.317,29.2813 -22.68,48.3634 -21.476,-48.3634 z"
         style="fill:#8f9399;fill-opacity:1;fill-rule:evenodd;stroke:none"
         id="path70" /><path
         d="m 968.293,54.4453 h -5.883 v 84.2427 h 5.883 l 57.837,-72.3599 v 72.3599 h 5.88 V 54.4453 h -3.96 L 968.293,129.688 V 54.4453"
         style="fill:#8f9399;fill-opacity:1;fill-rule:evenodd;stroke:none"
         id="path72" /><path
         d="m 1080.55,93.4531 h 32.16 v -6.7226 h -32.16 v 6.7226"
         style="fill:#8f9399;fill-opacity:1;fill-rule:evenodd;stroke:none"
         id="path74" /><path
         d="m 1166.79,99.6914 v 38.9966 h -5.89 V 54.4453 h 5.89 v 39.2422 h 53.87 V 54.4453 h 5.88 v 84.2427 h -5.88 V 99.6914 h -53.87"
         style="fill:#8f9399;fill-opacity:1;fill-rule:evenodd;stroke:none"
         id="path76" /><path
         d="m 1273.41,54.4453 38.64,84.2427 h 6 l 40.08,-84.2427 h -6.96 l -10.8,23.7617 h -49.44 l -11.04,-23.7617 z m 64.32,29.2813 -22.68,48.3634 -21.48,-48.3634 z"
         style="fill:#8f9399;fill-opacity:1;fill-rule:evenodd;stroke:none"
         id="path78" /><path
         d="m 1473.15,87.4492 v 51.2388 h -5.88 V 88.1719 c 0.16,-2.086 0.02,-4.4258 -0.41,-7.0274 -0.45,-2.5937 -1,-4.7382 -1.69,-6.4179 -0.68,-1.6758 -1.76,-3.5625 -3.24,-5.6407 -1.48,-2.0781 -3.22,-3.8007 -5.22,-5.1601 -4.96,-3.2813 -11.4,-4.918 -19.32,-4.918 -9.68,0.0039 -16.84,3.3594 -21.48,10.0781 -3.68,5.2813 -5.52,11.3204 -5.52,18.1211 v 51.481 h -5.87 V 86.8477 c 0.39,-5.4414 1.25,-9.8204 2.57,-13.1407 1.32,-3.3203 2.82,-6.2031 4.5,-8.6406 1.68,-2.4336 3.58,-4.5 5.7,-6.1797 2.12,-1.6758 4.89,-3.0781 8.28,-4.1992 3.41,-1.1172 7.39,-1.6797 11.94,-1.6797 4.56,0 8.87,0.582 12.9,1.7383 4.04,1.1641 7.28,2.6016 9.72,4.3203 2.44,1.7266 4.58,3.8633 6.42,6.4219 1.84,2.5625 3.16,4.8789 3.97,6.957 0.79,2.086 1.39,4.4024 1.79,6.961 0.56,2.9648 0.84,5.6406 0.84,8.0429"
         style="fill:#8f9399;fill-opacity:1;fill-rule:evenodd;stroke:none"
         id="path80" /><path
         d="m 1578.82,129.328 c -1.52,1.52 -3.36,2.996 -5.52,4.438 -2.16,1.441 -3.92,2.441 -5.28,3 -1.36,0.558 -2.96,1.121 -4.8,1.679 -3.6,1.121 -7.92,1.52 -12.96,1.2 -8.72,-0.481 -15.46,-2.758 -20.22,-6.84 -4.76,-4.078 -7.14,-9.278 -7.14,-15.598 0,-6.316 2.48,-11.461 7.44,-15.422 4.96,-3.9569 12.62,-6.8983 22.98,-8.8202 10.36,-1.914 17.1,-5.5585 20.22,-10.9179 3.12,-5.3555 1.76,-11.3203 -4.08,-17.8789 -1.76,-2.0039 -4.26,-3.4414 -7.5,-4.3203 -3.24,-0.8789 -6.54,-1.1602 -9.9,-0.8399 -10.32,-0.1601 -19.64,3.8789 -27.96,12.1172 l -4.44,-4.6758 c 0.48,-0.3242 1.84,-1.3398 4.08,-3.0625 2.24,-1.7187 4.06,-2.9804 5.46,-3.7812 1.4,-0.8008 3.38,-1.8008 5.94,-3 4.88,-2.3946 11.16,-3.5977 18.84,-3.5977 3.84,0 7.48,0.6211 10.92,1.8594 3.44,1.2461 6.34,2.918 8.7,5.0391 2.36,2.121 4.28,4.5625 5.76,7.3203 1.48,2.7617 2.22,5.6992 2.22,8.8203 0,3.125 -0.68,6.2773 -2.04,9.4804 -2.24,4.2383 -5.84,7.3985 -10.8,9.4805 -5.12,2.2383 -10.84,3.918 -17.16,5.0392 l -5.04,1.082 c -3.92,0.879 -6.6,1.695 -8.04,2.457 -1.44,0.762 -2.8,1.562 -4.08,2.398 -1.28,0.844 -2.24,1.743 -2.88,2.704 -1.36,2.398 -2.04,5.199 -2.04,8.398 0.08,5.762 2.18,10.062 6.3,12.902 4.12,2.844 8.84,4.176 14.16,4.02 5.32,-0.156 10.24,-1.16 14.76,-3.004 4.52,-1.832 7.94,-4.039 10.26,-6.598 l 3.84,4.922"
         style="fill:#8f9399;fill-opacity:1;fill-rule:evenodd;stroke:none"
         id="path82" /></g></g></svg>
